<?xml version="1.0" encoding="utf-8"?>
<!-- Generator: Adobe Illustrator 26.0.1, SVG Export Plug-In . SVG Version: 6.00 Build 0)  -->
<svg version="1.1" id="Ebene_1" xmlns="http://www.w3.org/2000/svg" xmlns:xlink="http://www.w3.org/1999/xlink" x="0px" y="0px"
	 viewBox="0 0 700 700" style="enable-background:new 0 0 700 700;" xml:space="preserve">
<g>
	<path d="M602.8,264.3c-4.2-2.1-9-2.4-13.4-1c-4.4,1.5-8,4.6-10.1,8.8l-9.6,19.3l0,0c-4.4-16.9-10.8-33.2-19-48.6
		c-19.7-36.1-48.7-66.3-84-87.5c-35.3-21.2-75.6-32.5-116.8-32.9c-44.6,0-88.3,13.1-125.6,37.7c-37.2,24.6-66.4,59.6-83.9,100.7
		c-1.8,4.3-1.9,9.1-0.1,13.4c1.7,4.3,5.1,7.8,9.4,9.6c4.3,1.8,9.1,1.9,13.4,0.1s7.8-5.1,9.6-9.4c19-44.7,54.2-80.5,98.5-100.3
		s94.5-22.2,140.5-6.6c46,15.6,84.4,47.9,107.5,90.6c7.4,13.7,13.1,28.2,17,43.2l-16.4-16.4l0,0c-4.4-4.3-10.8-5.9-16.8-4.3
		c-6,1.6-10.6,6.3-12.2,12.2c-1.6,6,0,12.3,4.3,16.8l52.5,52.5v0c4.1,3.8,9.6,5.5,15.1,4.6c5.5-0.9,10.3-4.3,12.9-9.2l35-70
		c2.1-4.2,2.4-9,1-13.4C610.1,270.1,607,266.4,602.8,264.3L602.8,264.3z"/>
	<path d="M135.6,333.3c-4.9,1.1-9.1,4.3-11.3,8.8l-35,70c-2.1,4.2-2.4,9-1,13.4c1.5,4.4,4.6,8,8.8,10.1c4.2,2,8.9,2.3,13.3,0.8
		c4.4-1.5,8-4.6,10.2-8.7l9.6-19.3l0,0c4.4,16.9,10.8,33.2,19,48.6c16.8,30.7,40.4,57.2,68.9,77.6c28.5,20.3,61.3,34,95.8,39.9
		c11.9,1.9,23.9,2.9,36,2.9c44.6,0,88.3-13.1,125.6-37.7c37.2-24.6,66.4-59.6,83.9-100.7c2.5-5.8,1.7-12.4-2.1-17.4
		c-3.8-5-9.9-7.6-16.1-6.9c-6.2,0.8-11.5,4.8-14,10.5c-15.7,37-42.6,68.2-76.9,89.2c-34.3,20.9-74.4,30.6-114.5,27.6
		c-40.1-3-78.3-18.4-109.2-44.2c-30.9-25.8-52.9-60.6-63-99.5l16.4,16.4l0,0c3.3,3.4,7.7,5.3,12.4,5.3c4.7,0,9.2-1.8,12.5-5.1
		c3.3-3.3,5.2-7.8,5.1-12.5c0-4.7-2-9.2-5.3-12.4l-52.5-52.5C147.7,333.6,141.5,332.1,135.6,333.3L135.6,333.3z"/>
</g>
</svg>
