<?xml version="1.0" encoding="utf-8"?>
<!-- Generator: Adobe Illustrator 26.0.1, SVG Export Plug-In . SVG Version: 6.00 Build 0)  -->
<svg version="1.1" id="Ebene_1" xmlns="http://www.w3.org/2000/svg" xmlns:xlink="http://www.w3.org/1999/xlink" x="0px" y="0px"
	 viewBox="0 0 700 700" style="enable-background:new 0 0 700 700;" xml:space="preserve">
<path d="M500.5,283.5l-140-105c-3-2.3-6.7-3.5-10.5-3.5s-7.5,1.2-10.5,3.5l-140,105c-4.4,3.3-7,8.5-7,14v210c0,4.6,1.8,9.1,5.1,12.4
	s7.7,5.1,12.4,5.1h280c4.6,0,9.1-1.8,12.4-5.1s5.1-7.7,5.1-12.4v-210C507.5,292,504.9,286.8,500.5,283.5z M315,402.5h70V490h-70
	V402.5z M472.5,490H420V385c0-4.6-1.8-9.1-5.1-12.4s-7.7-5.1-12.4-5.1h-105c-4.7,0-9.1,1.8-12.4,5.1c-3.3,3.3-5.1,7.8-5.1,12.4v105
	h-52.5V306.3L350,214.4l122.5,91.9L472.5,490z"/>
</svg>
